<svg xmlns="http://www.w3.org/2000/svg" viewBox="0 0 256.69 314.97"><defs><style>.cls-1{fill:#0dd2fd;}</style></defs><g id="Capa_2" data-name="Capa 2"><g id="Capa_1-2" data-name="Capa 1"><path class="cls-1" d="M112.91,22.25C102.49,14.37,91.68,7.7,80.08,3.1,34.93-14.84-23.95,48.92,10.19,97c37.15,52.28,85.69,86.12,111,113.94a6.85,6.85,0,0,1,1.78,5,252.65,252.65,0,0,0,.09,31.8c.09,8.1,10.74,10.82,12.77.65A6.38,6.38,0,0,0,136,247c0-18.9,20.13-16.47,18.27.4a4.18,4.18,0,0,1-.07.51c-7.84,43.62,22.62,42.6,15.57-.25-2.29-19.12-1.06-33,1.62-41.33a6.88,6.88,0,0,1,9.73-4,25.41,25.41,0,0,1,4.4,3,7.29,7.29,0,0,1,.58.53l44.19,45.25c.13.13.26.26.4.38,19.22,17.11,34.68-6.73,20.58-18.82L199,179.21l.09.09c11-13.84,23.94-24.91,27.57-33.06a6.88,6.88,0,0,0-.11-5.75c-3.32-6.88-8.51-13.68-15.9-20.22-7.09-6.25-14-13.32-21-20.83a7,7,0,0,0-9.19-1c-12.13,9-25.51,0-28.25-8.23a6.7,6.7,0,0,0-6.87-4.5c-5,.4-8.15-1.08-9.24-3.7a6.59,6.59,0,0,0-5.59-3.92c-8.36-.71-11.41-9.7-10.64-20.4a7,7,0,0,0-5.47-7.44c-10-2-16.93-14.43-1.49-28l.53-.41"/><path class="cls-1" d="M168.52,308.15c0,4.87-2.12,6.82-7.53,6.82s-6.65-2.54-6.65-7.41a22.9,22.9,0,0,1,.19-2.91c.93-7.4,11.61-8,13.41-.74A17.9,17.9,0,0,1,168.52,308.15Z"/></g></g></svg>